<svg xmlns="http://www.w3.org/2000/svg" width="24" height="24" viewBox="0 0 24 24" fill="none" stroke="currentColor" stroke-width="1.75" stroke-linecap="round" stroke-linejoin="round">
  <path d="M11.5 21.625L5.375 21.625Q2.375 21.625 2.375 18.625L2.375 5.375Q2.375 2.375 5.375 2.375L18.625 2.375Q21.625 2.375 21.625 5.375L21.625 10.5"/>
  <path d="M2.375 17.75L7.4 12.725Q8.2 11.925 9 12.725L11.2 14.925"/>
  <path d="M18.125 13.75L18.125 21.225"/>
  <path d="M14.625 18.125L17.525 21.025Q18.125 21.625 18.725 21.025L21.625 18.125"/>
  <path d="M8.75 7.375C8.75 8.13439 8.13439 8.75 7.375 8.75C6.61561 8.75 6 8.13439 6 7.375C6 6.61561 6.61561 6 7.375 6C8.13439 6 8.75 6.61561 8.75 7.375Z"/>
</svg>
